<?xml version="1.0" encoding="utf-8"?>
<!-- Generator: Adobe Illustrator 22.1.0, SVG Export Plug-In . SVG Version: 6.00 Build 0)  -->
<svg version="1.1" xmlns="http://www.w3.org/2000/svg" xmlns:xlink="http://www.w3.org/1999/xlink" x="0px" y="0px"
	 viewBox="0 0 28 21" style="enable-background:new 0 0 28 21;" xml:space="preserve">
<style type="text/css">
	.st0{fill:none;}
	.st1{fill:#FFFFFF;}
</style>
<g id="Layer_2">
</g>
<g id="Layer_1">
	<path class="st0" d="M5,2C4.6,2,4.1,2.1,3.8,2.3l8.1,8.4c1.2,1.1,3.1,1.1,4.2-0.1l8.1-8.4C23.8,2.1,23.4,2,23,2H5z"/>
	<path class="st0" d="M23,0c1,0,1.8,0.3,2.6,0.7l3.8-3.9c1.2-1.3,1.5-1.7,1.7-2.3c0.1-0.5,0.1-1,0-1.5c-0.2-0.6-0.5-1.1-1.7-2.3
		L16.1-23.1c-0.6-0.5-1.3-0.8-2.1-0.8c0,0,0,0-0.1,0c-0.8,0-1.5,0.3-2.1,0.9L-1.3-9.2C-2.6-7.9-2.9-7.5-3-6.9c-0.1,0.5-0.1,1,0,1.5
		c0.2,0.6,0.5,1.1,1.7,2.3l3.7,3.8C3.1,0.3,4,0,5,0H23z"/>
	<path class="st0" d="M13.9,13.5c-1.2,0-2.5-0.5-3.5-1.4L10.3,12l-8-8.3C2.1,4.1,2,4.5,2,5v11c0,1.7,1.3,3,3,3h18c1.7,0,3-1.3,3-3V5
		c0-0.5-0.1-1-0.4-1.4L17.5,12C16.6,13,15.3,13.5,13.9,13.5z"/>
	<path class="st1" d="M27.1,2.1c-0.4-0.5-0.9-1-1.5-1.4C24.8,0.3,24,0,23,0H5C4,0,3.1,0.3,2.3,0.8C1.8,1.1,1.3,1.6,0.9,2.2
		C0.3,3,0,3.9,0,5v11c0,2.8,2.2,5,5,5h18c2.8,0,5-2.2,5-5V5C28,3.9,27.6,2.9,27.1,2.1z M5,2h18c0.4,0,0.8,0.1,1.2,0.2l-8.1,8.4
		c-1.1,1.2-3.1,1.2-4.2,0.1L3.8,2.3C4.1,2.1,4.6,2,5,2z M26,16c0,1.7-1.3,3-3,3H5c-1.7,0-3-1.3-3-3V5c0-0.5,0.1-0.9,0.3-1.3l8,8.3
		l0.1,0.1c1,0.9,2.2,1.4,3.5,1.4c1.3,0,2.6-0.5,3.6-1.5l8.1-8.4C25.9,4,26,4.5,26,5V16z"/>
</g>
</svg>
